<svg width="30" height="30" fill="none" xmlns="http://www.w3.org/2000/svg"><path fill-rule="evenodd" clip-rule="evenodd" d="M30 15c0 8.284-6.716 15-15 15-8.284 0-15-6.716-15-15C0 6.716 6.716 0 15 0c8.284 0 15 6.716 15 15zM17.117 9.143c2.557.174 3.682 1.38 3.682 1.38 1.948 2.536 2.058 8.086 2.058 8.086-1.835 2.236-4.14 1.95-4.14 1.95l-.847-1.236c1.092-.299 1.872-.985 2.34-1.519-1.307.935-3.157 1.519-5.21 1.519s-3.903-.584-5.21-1.519c.468.534 1.248 1.22 2.34 1.519l-.847 1.237s-2.305.285-4.14-1.95c0 0 .11-5.55 2.058-8.088 0 0 1.125-1.205 3.682-1.38v.381s-1.402-.082-3.138 1.645c1.31-.953 3.18-1.55 5.255-1.55 2.076 0 3.945.597 5.255 1.55-1.736-1.727-3.138-1.645-3.138-1.645v-.38zm-5.897 6.464c0 .791.597 1.432 1.333 1.432.737 0 1.334-.64 1.334-1.432 0-.79-.597-1.432-1.334-1.432-.736 0-1.333.641-1.333 1.432zm4.894 0c0 .791.596 1.432 1.333 1.432.736 0 1.333-.64 1.333-1.432 0-.79-.597-1.432-1.333-1.432-.737 0-1.333.641-1.333 1.432z" fill="#7289DA"/></svg>