<svg width="30" height="30" fill="none" xmlns="http://www.w3.org/2000/svg"><circle cx="15" cy="15" r="14" fill="#fff"/><path fill-rule="evenodd" clip-rule="evenodd" d="M15 30c8.284 0 15-6.716 15-15 0-8.284-6.716-15-15-15C6.716 0 0 6.716 0 15c0 8.284 6.716 15 15 15zm-.416-18.564h.859v3.435h-.86v-3.435zM9.43 8l-.859 2.577v9.448h3.436v1.718h1.718l1.718-1.718h2.577l3.435-3.659V8H9.43zm11.166 7.73l-2.405 2.577h-3.045l-1.85 1.346v-1.346h-3.007V8.86h10.307v6.871zm-3.435-4.294h.859v3.435h-.86v-3.435z" fill="#9147FF"/></svg>