<svg width="30" height="30" viewBox="0 0 30 30" fill="none" xmlns="http://www.w3.org/2000/svg">
<circle cx="15" cy="15" r="14" fill="white"/>
<path fill-rule="evenodd" clip-rule="evenodd" d="M30 15C30 23.2842 23.2842 30 15 30C6.71571 30 0 23.2842 0 15C0 6.71571 6.71571 0 15 0C23.2842 0 30 6.71571 30 15ZM17.1172 9.14286C19.6736 9.31729 20.7995 10.5224 20.7995 10.5224C22.7475 13.0593 22.8573 18.6091 22.8571 18.6092C21.0223 20.8451 18.7168 20.5596 18.7168 20.5596L17.87 19.3229C18.9621 19.0241 19.7419 18.3383 20.2107 17.8043C18.9029 18.7389 17.0528 19.3229 15 19.3229C12.9472 19.3229 11.0971 18.7389 9.78931 17.8043C10.2581 18.3384 11.0379 19.0241 12.13 19.3229L11.2832 20.5596C11.2832 20.5596 8.97774 20.8449 7.14286 18.6092C7.14286 18.6092 7.2526 13.0593 9.20054 10.5224C9.20054 10.5224 10.3264 9.31729 12.8828 9.14286V9.5234C12.8828 9.5234 11.4807 9.44103 9.74506 11.1684C11.0551 10.2153 12.9241 9.61846 15 9.61846C17.0759 9.61846 18.9449 10.2154 20.2549 11.1684C18.5193 9.44103 17.1172 9.5234 17.1172 9.5234V9.14286ZM11.2205 15.6073C11.2205 16.3983 11.8173 17.0394 12.5535 17.0394C13.2898 17.0394 13.8866 16.3982 13.8866 15.6073C13.8866 14.8164 13.2898 14.1752 12.5535 14.1752C11.8173 14.1752 11.2205 14.8164 11.2205 15.6073ZM16.1136 15.6073C16.1136 16.3983 16.7104 17.0394 17.4466 17.0394C18.1829 17.0394 18.7797 16.3982 18.7797 15.6073C18.7797 14.8164 18.1829 14.1752 17.4466 14.1752C16.7104 14.1752 16.1136 14.8164 16.1136 15.6073Z" fill="#7289DA"/>
</svg>
