<svg width="30" height="30" viewBox="0 0 30 30" fill="none" xmlns="http://www.w3.org/2000/svg">
<circle cx="15" cy="15" r="14" fill="white"/>
<path fill-rule="evenodd" clip-rule="evenodd" d="M15 30C23.2843 30 30 23.2843 30 15C30 6.71573 23.2843 0 15 0C6.71573 0 0 6.71573 0 15C0 23.2843 6.71573 30 15 30ZM10.8144 9H19.9356C20.9654 9 21.75 9.78462 21.75 10.8144V19.9356C21.75 20.9654 20.9654 21.75 19.9356 21.75H10.8144C9.78461 21.75 9 20.9654 9 19.9356V10.8144C9 9.78462 9.78461 9 10.8144 9ZM19.2 15.5221C19.2 17.5327 17.4837 19.2 15.375 19.2C13.2663 19.2 11.55 17.5327 11.599 15.4731C11.599 15.1298 11.6481 14.7865 11.7462 14.4433H10.6183V19.6904C10.6183 19.9846 10.8635 20.1808 11.1087 20.1808H19.6413C19.9356 20.1808 20.1317 19.9356 20.1317 19.6904V14.4923H19.0529C19.151 14.7865 19.2 15.1788 19.2 15.5221ZM12.9231 15.326C12.9231 16.65 14.0019 17.7288 15.375 17.7288C16.7481 17.7288 17.8269 16.699 17.8269 15.326C17.8269 14.0019 16.7481 12.9231 15.375 12.9231C14.0019 12.9231 12.9231 14.0019 12.9231 15.326ZM19.5433 13.0212C19.8375 13.0212 20.0827 12.776 20.0827 12.4817V11.1577C20.0827 10.8635 19.8375 10.6183 19.5433 10.6183H18.1702C17.876 10.6183 17.6308 10.8635 17.6308 11.1577V12.4817C17.6308 12.776 17.876 13.0212 18.1702 13.0212H19.5433Z" fill="url(#paint0_linear)"/>
<defs>
<linearGradient id="paint0_linear" x1="0" y1="30" x2="30" y2="0" gradientUnits="userSpaceOnUse">
<stop stop-color="#EEA054"/>
<stop offset="1" stop-color="#D64763"/>
</linearGradient>
</defs>
</svg>
