<svg width="30" height="30" viewBox="0 0 30 30" fill="none" xmlns="http://www.w3.org/2000/svg">
<circle cx="15" cy="15" r="14" fill="white"/>
<path fill-rule="evenodd" clip-rule="evenodd" d="M15 30C23.2843 30 30 23.2843 30 15C30 6.71574 23.2843 0 15 0C6.71574 0 0 6.71574 0 15C0 23.2843 6.71574 30 15 30ZM14.5839 11.4357H15.4429V14.8715H14.5839V11.4357ZM9.43034 8L8.5714 10.5768V20.025H12.0071V21.7429H13.725L15.4428 20.025H18.0196L21.4553 16.366V8H9.43034ZM20.5964 15.7304L18.1914 18.3071H15.1457L13.2955 19.6531V18.3071H10.2893V8.85894H20.5964V15.7304ZM17.1607 11.4357H18.0196V14.8715H17.1607V11.4357Z" fill="#9147FF"/>
</svg>
