<svg width="15" height="15" viewBox="0 0 15 15" fill="none" xmlns="http://www.w3.org/2000/svg">
<path d="M1.55676 14.7135C1.7553 11.7435 4.29446 9.375 7.40252 9.375C10.5099 9.375 13.049 11.7435 13.2475 14.7135H12.4956C12.2976 12.1413 10.0797 10.125 7.40177 10.125C4.72374 10.125 2.50663 12.1421 2.30865 14.7135H1.55676Z" fill="white" stroke="white" stroke-width="0.5"/>
<path d="M3.66443 4.11375V4.11362C3.66375 2.05286 5.34151 0.375 7.40243 0.375C9.46419 0.375 11.1419 2.0522 11.1419 4.11375C11.1419 6.1753 9.46419 7.8525 7.40243 7.8525C5.34237 7.8525 3.66443 6.17399 3.66443 4.11375ZM7.40243 1.125C5.75382 1.125 4.41368 2.46515 4.41368 4.11375C4.41368 5.76235 5.75382 7.1025 7.40243 7.1025C9.05169 7.1025 10.3919 5.76243 10.3919 4.11375C10.3919 2.46494 9.05004 1.125 7.40243 1.125Z" fill="white" stroke="white" stroke-width="0.5"/>
</svg>
