<svg width="30" height="30" viewBox="0 0 30 30" fill="none" xmlns="http://www.w3.org/2000/svg">
<circle cx="15.08" cy="15" r="14" fill="white"/>
<path fill-rule="evenodd" clip-rule="evenodd" d="M30 15C30 23.2843 23.2843 30 15 30C6.71574 30 0 23.2843 0 15C0 6.71574 6.71574 0 15 0C23.2843 0 30 6.71574 30 15ZM15.7257 19.9581H14.6669C14.6669 19.9581 12.3306 20.0973 10.2733 17.9778C8.02954 15.6659 6.04797 11.0784 6.04797 11.0784C6.04797 11.0784 5.93374 10.7776 6.05783 10.6322C6.19731 10.4687 6.57729 10.4582 6.57729 10.4582L9.10837 10.4418C9.10837 10.4418 9.34691 10.4813 9.51766 10.6053C9.65834 10.7076 9.73723 10.8989 9.73723 10.8989C9.73723 10.8989 10.1463 11.9227 10.6881 12.8489C11.7455 14.6569 12.238 15.0524 12.5971 14.8587C13.1201 14.5763 12.9633 12.3027 12.9633 12.3027C12.9633 12.3027 12.9729 11.4774 12.7 11.11C12.4886 10.8252 12.0899 10.7421 11.9139 10.7188C11.7715 10.7 12.0052 10.3728 12.3082 10.226C12.7637 10.0051 13.5681 9.99251 14.5185 10.0023C15.259 10.0097 15.472 10.0553 15.7616 10.1246C16.4333 10.2851 16.4124 10.7994 16.3672 11.9091C16.3537 12.2406 16.338 12.6253 16.338 13.0697C16.338 13.1697 16.3351 13.2762 16.3321 13.3858C16.3164 13.9541 16.2984 14.6048 16.6764 14.8466C16.8702 14.9703 17.3445 14.8651 18.5305 12.8722C19.0928 11.9277 19.5143 10.8171 19.5143 10.8171C19.5143 10.8171 19.6064 10.6191 19.7495 10.5341C19.896 10.4475 20.0934 10.4742 20.0934 10.4742L22.757 10.4577C22.757 10.4577 23.5573 10.3633 23.687 10.7207C23.8228 11.096 23.3878 11.9722 22.2996 13.4073C21.2668 14.7696 20.7646 15.2707 20.8112 15.7143C20.8452 16.038 21.1716 16.3311 21.7975 16.906C23.1086 18.1102 23.458 18.7425 23.5411 18.8928C23.5478 18.905 23.5528 18.914 23.5564 18.9199C24.1432 19.8827 22.9056 19.9581 22.9056 19.9581L20.54 19.9907C20.54 19.9907 20.0316 20.0905 19.3626 19.6357C19.0127 19.3981 18.6707 19.01 18.3447 18.6403C17.8465 18.0751 17.3861 17.5527 16.9931 17.676C16.3337 17.8831 16.3544 19.289 16.3544 19.289C16.3544 19.289 16.3592 19.5893 16.2089 19.7492C16.0456 19.9234 15.7257 19.9581 15.7257 19.9581Z" fill="#7294C7"/>
</svg>
