<svg width="30" height="30" viewBox="0 0 30 30" fill="none" xmlns="http://www.w3.org/2000/svg">
<circle cx="15.04" cy="15" r="14" fill="white"/>
<path fill-rule="evenodd" clip-rule="evenodd" d="M15 30C23.2843 30 30 23.2843 30 15C30 6.71573 23.2843 0 15 0C6.71573 0 0 6.71573 0 15C0 23.2843 6.71573 30 15 30ZM21.5132 13.7485C21.5244 13.9044 21.5348 14.0498 21.5348 14.1848V15.3V16.4151V16.4154C21.5348 16.7062 21.5348 17.0455 21.4864 17.4333C21.4864 17.8697 21.4379 18.2091 21.3409 18.5485C21.2439 18.9364 21.05 19.2273 20.8076 19.4697C20.5652 19.7121 20.2258 19.8576 19.8864 19.9061C18.8197 20.0515 17.1227 20.1 14.8924 20.1C12.6621 20.1 11.0136 20.0515 9.89848 19.9061C9.55909 19.8576 9.2197 19.7121 8.97727 19.4697C8.68636 19.2273 8.54091 18.9364 8.44394 18.5485C8.39549 18.2094 8.34705 17.8219 8.29861 17.4343L8.29849 17.4333C8.29849 17.2255 8.28456 17.0315 8.27164 16.8515C8.26044 16.6956 8.25 16.5502 8.25 16.4151V15.3V14.1848C8.25 13.8939 8.25 13.5545 8.29849 13.1667C8.29849 12.7303 8.34697 12.3909 8.44394 12.0515C8.54091 11.6636 8.73485 11.3727 8.97727 11.1303C9.2197 10.8879 9.55909 10.7424 9.89848 10.6939C10.9651 10.5485 12.6621 10.5 14.8924 10.5C17.1227 10.5 18.7712 10.5485 19.8864 10.6939C20.2258 10.7424 20.5652 10.8879 20.8076 11.1303C21.0985 11.3727 21.2439 11.6636 21.3409 12.0515C21.3894 12.3909 21.4379 12.7788 21.4864 13.1667C21.4864 13.3745 21.5003 13.5685 21.5132 13.7485ZM13.6318 18.0636L17.4621 15.6879C17.6076 15.5909 17.7045 15.3485 17.7045 15.203C17.7045 15.0576 17.6076 14.9121 17.4621 14.8151L13.6318 12.4394C13.4864 12.3424 13.2924 12.3424 13.147 12.4394C13.0015 12.5364 12.9045 12.6818 12.9045 12.8758V17.6758C12.9045 17.8697 13.0015 18.0152 13.147 18.1121C13.2439 18.1606 13.2924 18.1606 13.3894 18.1606C13.4864 18.1606 13.5833 18.1121 13.6318 18.0636Z" fill="#F40000"/>
</svg>
