<svg width="30" height="30" fill="none" xmlns="http://www.w3.org/2000/svg"><circle cx="15" cy="15" r="14" fill="#fff"/><path fill-rule="evenodd" clip-rule="evenodd" d="M15 30c8.284 0 15-6.716 15-15 0-8.284-6.716-15-15-15C6.716 0 0 6.716 0 15c0 8.284 6.716 15 15 15zM10.814 9h9.122a1.78 1.78 0 011.814 1.814v9.122a1.78 1.78 0 01-1.814 1.814h-9.122A1.78 1.78 0 019 19.936v-9.122A1.78 1.78 0 0110.814 9zm8.386 6.522c0 2.01-1.716 3.678-3.825 3.678s-3.825-1.667-3.776-3.727c0-.343.05-.687.147-1.03h-1.128v5.247c0 .295.245.49.49.49h8.533a.49.49 0 00.49-.49v-5.198h-1.078c.098.294.147.687.147 1.03zm-6.277-.196c0 1.324 1.079 2.403 2.452 2.403s2.452-1.03 2.452-2.403c0-1.324-1.079-2.403-2.452-2.403s-2.452 1.079-2.452 2.403zm6.62-2.305c.294 0 .54-.245.54-.54v-1.323a.544.544 0 00-.54-.54H18.17a.544.544 0 00-.54.54v1.324c0 .294.246.54.54.54h1.373z" fill="url(#paint0_linear)"/><defs><linearGradient id="paint0_linear" x1="0" y1="30" x2="30" y2="0" gradientUnits="userSpaceOnUse"><stop stop-color="#EEA054"/><stop offset="1" stop-color="#D64763"/></linearGradient></defs></svg>