<svg width="15" height="15" fill="none" xmlns="http://www.w3.org/2000/svg"><path d="M1.557 14.713c.198-2.97 2.737-5.338 5.846-5.338 3.107 0 5.646 2.368 5.845 5.338h-.752c-.198-2.572-2.416-4.588-5.094-4.588-2.678 0-4.895 2.017-5.093 4.588h-.752zM3.664 4.114v0A3.743 3.743 0 017.402.375a3.743 3.743 0 013.74 3.739 3.743 3.743 0 01-3.74 3.739 3.744 3.744 0 01-3.738-3.74zm3.738-2.989a2.991 2.991 0 00-2.988 2.989 2.991 2.991 0 002.988 2.989c1.65 0 2.99-1.34 2.99-2.99a2.992 2.992 0 00-2.99-2.988z" fill="#fff" stroke="#fff" stroke-width=".5"/></svg>