<svg width="30" height="30" fill="none" xmlns="http://www.w3.org/2000/svg"><circle cx="15.08" cy="15" r="14" fill="#fff"/><path fill-rule="evenodd" clip-rule="evenodd" d="M30 15c0 8.284-6.716 15-15 15-8.284 0-15-6.716-15-15C0 6.716 6.716 0 15 0c8.284 0 15 6.716 15 15zm-14.274 4.958h-1.06s-2.335.14-4.393-1.98c-2.243-2.312-4.225-6.9-4.225-6.9s-.114-.3.01-.446c.14-.163.52-.174.52-.174l2.53-.016s.239.04.41.163c.14.103.22.294.22.294s.408 1.024.95 1.95c1.057 1.808 1.55 2.203 1.91 2.01.522-.283.365-2.556.365-2.556s.01-.826-.263-1.193c-.211-.285-.61-.368-.786-.391-.143-.019.091-.346.394-.493.456-.22 1.26-.233 2.21-.224.741.008.954.053 1.244.123.671.16.65.674.605 1.784-.013.332-.029.716-.029 1.16 0 .1-.003.207-.006.317-.016.568-.034 1.219.344 1.46.194.124.669.02 1.855-1.974.562-.944.983-2.055.983-2.055s.092-.198.236-.283c.146-.087.343-.06.343-.06l2.664-.016s.8-.095.93.263c.136.375-.3 1.251-1.387 2.686-1.033 1.363-1.535 1.864-1.489 2.307.034.324.36.617.986 1.192 1.312 1.204 1.661 1.837 1.744 1.987a.788.788 0 00.015.027c.587.963-.65 1.038-.65 1.038l-2.366.033s-.508.1-1.177-.355c-.35-.238-.692-.626-1.018-.996-.498-.565-.959-1.087-1.352-.964-.66.207-.639 1.613-.639 1.613s.005.3-.145.46c-.163.174-.483.21-.483.21z" fill="#7294C7"/></svg>