<svg width="30" height="30" fill="none" xmlns="http://www.w3.org/2000/svg"><circle cx="15.04" cy="15" r="14" fill="#fff"/><path fill-rule="evenodd" clip-rule="evenodd" d="M15 30c8.284 0 15-6.716 15-15 0-8.284-6.716-15-15-15C6.716 0 0 6.716 0 15c0 8.284 6.716 15 15 15zm6.513-16.252c.011.156.022.302.022.437v2.23c0 .291 0 .63-.049 1.018 0 .437-.048.776-.145 1.116a1.936 1.936 0 01-.533.92 1.638 1.638 0 01-.922.437c-1.066.146-2.763.194-4.994.194-2.23 0-3.878-.049-4.994-.194a1.639 1.639 0 01-.92-.436c-.292-.243-.437-.534-.534-.921-.049-.34-.097-.727-.145-1.115 0-.209-.014-.402-.027-.582a6.26 6.26 0 01-.022-.437v-2.23c0-.291 0-.63.048-1.018 0-.437.049-.776.146-1.115.097-.388.29-.68.533-.922a1.64 1.64 0 01.921-.436c1.067-.146 2.764-.194 4.994-.194s3.88.049 4.994.194c.34.048.68.194.922.436.29.243.436.534.533.921.048.34.097.728.145 1.116 0 .207.014.402.027.582zm-7.881 4.316l3.83-2.376c.146-.097.242-.34.242-.485 0-.145-.096-.29-.242-.388l-3.83-2.376a.44.44 0 00-.485 0 .51.51 0 00-.242.437v4.8c0 .194.097.34.242.436a.437.437 0 00.242.049.37.37 0 00.243-.097z" fill="#F40000"/></svg>